# AST/ASF file generated using VICON BodyLanguage
# -----------------------------------------------
:version 1.10
:name VICON
:units
  mass 1.0
  length 0.45
  angle deg
:documentation
   .ast/.asf automatically generated from VICON data using
   VICON BodyBuilder and BodyLanguage model FoxedUp or BRILLIANT.MOD
:root
   order TX TY TZ RX RY RZ
   axis XYZ
   position 0 0 0  
   orientation 0 0 0 
:bonedata
  begin
     id 1 
     name lhipjoint
     direction 0.710188 -0.616876 0.339259 
     length 2.5669 
     axis 0 0 0  XYZ
  end
  begin
     id 2 
     name lfemur
     direction 0.34202 -0.939693 0  
     length 7.12796  
     axis 0 0 20  XYZ
    dof rx ry rz
    limits (-160.0 20.0)
           (-70.0 70.0)
           (-60.0 70.0)
  end
  begin
     id 3 
     name ltibia
     direction 0.34202 -0.939693 0   
     length 7.58108   
     axis 0 0 20   XYZ
    dof rx
    limits (-10.0 170.0)
  end
  begin
     id 4 
     name lfoot
     direction 0.0669471 -0.183936 0.980656   
     length 2.17365   
     axis -90 7.62852e-016 20   XYZ
    dof rx rz
    limits (-45.0 90.0)
           (-70.0 20.0)
  end
  begin
     id 5 
     name ltoes
     direction 1.53508e-011 -4.21705e-011 1   
     length 1.09427   
     axis -90 7.62852e-016 20   XYZ
    dof rx
    limits (-90.0 20.0)
  end
  begin
     id 6 
     name rhipjoint
     direction -0.700191 -0.625589 0.34405   
     length 2.53115  
     axis 0 0 0  XYZ 
  end
  begin
     id 7 
     name rfemur
     direction -0.34202 -0.939693 0   
     length 7.33006   
     axis 0 0 -20   XYZ
    dof rx ry rz
    limits (-160.0 20.0)
           (-70.0 70.0)
           (-70.0 60.0)
  end
  begin
     id 8 
     name rtibia
     direction -0.34202 -0.939693 0   
     length 7.64926   
     axis 0 0 -20   XYZ
    dof rx
    limits (-10.0 170.0)
 end
 begin
     id 9 
     name rfoot
     direction -0.0688927 -0.189281 0.979503   
     length 2.20493  
     axis -90 -7.62852e-016 -20   XYZ
    dof rx rz
    limits (-45.0 90.0)
           (-20.0 70.0)
  end
  begin
     id 10 
     name rtoes
     direction -1.53567e-011 -4.21933e-011 1   
     length 1.10919   
     axis -90 -7.62852e-016 -20   XYZ
    dof rx
    limits (-90.0 20.0)
  end
  begin
     id 11 
     name lowerback
     direction -0.0167868 0.989873 -0.140959   
     length 2.14596   
     axis 0 0 0   XYZ
    dof rx ry rz
    limits (-20.0 45.0)
           (-30.0 30.0)
           (-30.0 30.0)
  end
  begin
     id 12 
     name upperback
     direction 0.0129109 0.998033 0.0613525   
     length 2.10457   
     axis 0 0 0   XYZ
    dof rx ry rz
    limits (-20.0 45.0)
           (-30.0 30.0)
           (-30.0 30.0)
  end
  begin
     id 13 
     name thorax
     direction 0.0177047 0.991119 0.131797   
     length 2.17652   
     axis 0 0 0   XYZ
    dof rx ry rz
    limits (-20.0 45.0)
           (-30.0 30.0)
           (-30.0 30.0)
  end
  begin
     id 14 
     name lowerneck
     direction -0.0336893 0.997548 0.0613464   
     length 1.8912   
     axis 0 0 0   XYZ
    dof rx ry rz
    limits (-20.0 45.0)
           (-30.0 30.0)
           (-30.0 30.0)
  end
  begin
     id 15 
     name upperneck
     direction 0.0435909 0.997179 -0.0611028   
     length 1.8829   
     axis 0 0 0   XYZ
    dof rx ry rz
    limits (-20.0 45.0)
           (-30.0 30.0)
           (-30.0 30.0)
  end
  begin
     id 16
     name head
     direction 0.0175076 0.999444 -0.0283782  
     length 1.93197  
     axis 0 0 0   XYZ
    dof rx ry rz
    limits (-20.0 45.0)
           (-30.0 30.0)
           (-30.0 30.0)
  end
  begin
     id 17 
     name lclavicle
     direction 0.919164 0.389875 0.0559876  
     length 3.60004  
     axis 0 0 0   XYZ
    dof ry rz
    limits (-20.0 10.0)
           (0.0 20.0)
  end
  begin
     id 18 
     name lhumerus
     direction 1 -4.48958e-011 6.89191e-027   
     length 5.43301   
     axis 180 -30 -90   XYZ
    dof rx ry rz
    limits (-60.0 90.0)
           (-90.0 90.0)
           (-90.0 90.0)
  end
  begin
     id 19
     name lradius
     direction 1 -4.4897e-011 3.24727e-027   
     length 3.15936   
     axis 180 -30 -90   XYZ
    dof rx
    limits (-10.0 170.0)
  end
  begin
     id 20
     name lwrist
     direction 1 -4.4897e-011 9.00228e-027   
     length 1.57968   
     axis -6.29373e-015 90 90   XYZ
    dof ry
    limits (-180.0 0.0)
 end
  begin
     id 21 
     name lhand
     direction 1 -4.48968e-011 1.80042e-026   
     length 0.712827   
     axis -1.14882e-014 90 90   XYZ
    dof rx rz
    limits (-90.0 90.0)
           (-45.0 45.0)
  end
  begin
     id 22 
     name lfingers
     direction 1 -4.49019e-011 3.60267e-026   
     length 0.574699   
     axis -2.29769e-014 90 90   XYZ
    dof rx
    limits (0.0 90.0)
  end
  begin
     id 23
     name lthumb
     direction 0.707107 -6.3498e-011 0.707107   
     length 0.825157   
     axis -90 45 5.37419e-014   XYZ
    dof rx rz
    limits (-45.0 45.0)
           (-45.0 45.0)
  end
  begin
     id 24 
     name rclavicle
     direction -0.890334 0.455305 -0.00132111   
     length 3.51494  
     axis 0 0 0   XYZ 
    dof ry rz
    limits (-10.0 20.0)
           (-20.0 0.0)
  end
  begin
     id 25 
     name rhumerus
     direction -1 -4.48967e-011 5.07175e-028  
     length 5.34194   
     axis 180 30 90   XYZ
    dof rx ry rz
    limits (-90.0 60.0)
           (-90.0 90.0)
           (-90.0 90.0)
  end
  begin
     id 26 
     name rradius
     direction -1 -4.48955e-011 3.30467e-027   
     length 3.19351   
     axis 180 30 90   XYZ
    dof rx
    limits (-10.0 170.0)
  end
  begin
     id 27 
     name rwrist
     direction -1 -4.48968e-011 9.00208e-027   
     length 1.59676   
     axis -6.29373e-015 -90 -90   XYZ
    dof ry
    limits (-180.0 0.0)
  end
  begin
     id 28
     name rhand
     direction -1 -4.49e-011 1.80099e-026   
     length 0.743862   
     axis -1.14882e-014 -90 -90   XYZ
    dof rx rz
    limits (-90.0 90.0)
           (-45.0 45.0)
  end
  begin
     id 29
     name rfingers
     direction -1 -4.49009e-011 3.6023e-026   
     length 0.599721   
     axis -2.29769e-014 -90 -90   XYZ
    dof rx
    limits (0.0 90.0)
  end
  begin
     id 30
     name rthumb
     direction -0.707107 -6.35025e-011 0.707107   
     length 0.861083   
     axis -90 -45 -5.37419e-014   XYZ
    dof rx rz
    limits (-45.0 45.0)
           (-45.0 45.0)
  end
:hierarchy
  begin
    root lhipjoint rhipjoint lowerback
    lhipjoint lfemur
    lfemur ltibia
    ltibia lfoot
    lfoot ltoes
    rhipjoint rfemur
    rfemur rtibia
    rtibia rfoot
    rfoot rtoes
    lowerback upperback
    upperback thorax
    thorax lowerneck lclavicle rclavicle
    lowerneck upperneck
    upperneck head
    lclavicle lhumerus
    lhumerus lradius
    lradius lwrist
    lwrist lhand lthumb
    lhand lfingers
    rclavicle rhumerus
    rhumerus rradius
    rradius rwrist
    rwrist rhand rthumb
    rhand rfingers
  end

#!OML:ASF H:\Martial Arts Walks\Project 1\Capture day 1\Session 1\male.ASF
:FULLY-SPECIFIED
:DEGREES
1
root -7.61692 14.8472 -35.7858 4.79584 60.8177 2.84746
lowerback 16.5417 -5.30677 -8.16799
upperback -0.773901 -8.21899 4.3812
thorax -8.26924 -3.51288 11.2874
lowerneck 9.15378 -17.7256 -17.8642
upperneck 2.63502 -25.8578 19.0386
head 4.16198 -13.2284 7.26796
rclavicle 1.60022e-014 9.54166e-015
rhumerus -37.8563 9.26843 -75.1112
rradius 36.162
rwrist 0.197977
rhand -11.3786 -39.1912
rfingers 7.12502
rthumb 14.6558 -68.6533
lclavicle 1.60022e-014 9.54166e-015
lhumerus -34.6184 4.8723 82.3952
lradius 34.2595
lwrist -13.9919
lhand -28.1244 10.1046
lfingers 7.12502
lthumb -1.50605 40.0791
rfemur -41.4956 6.44995 -6.27136
rtibia 57.7034
rfoot -24.7248 17.7537
rtoes -15.413
lfemur -13.6223 14.9066 -2.17034
ltibia 56.7998
lfoot -29.3477 18.0806
ltoes -23.4519
2
root -7.61692 14.8551 -35.7906 5.05063 60.5554 3.1021
lowerback 16.3903 -5.31234 -8.22928
upperback -0.801869 -8.23391 4.34639
thorax -8.20894 -3.52343 11.2651
lowerneck 9.1468 -17.7533 -17.8229
upperneck 2.70527 -25.8946 18.9774
head 4.17683 -13.244 7.23718
rclavicle -2.16675e-014 -7.95139e-015
rhumerus -37.8886 8.61057 -74.7783
rradius 35.667
rwrist -0.366807
rhand -12.3249 -39.5025
rfingers 7.12502
rthumb 13.7439 -69.0286
lclavicle -2.16675e-014 -7.95139e-015
lhumerus -34.1976 4.90091 82.1755
lradius 32.8185
lwrist -15.3517
lhand -27.9477 10.4148
lfingers 7.12502
lthumb -1.33539 40.3904
rfemur -41.6303 6.35461 -6.39508
rtibia 57.586
rfoot -24.5408 18.1858
rtoes -14.923
lfemur -13.4698 14.9931 -2.38833
ltibia 56.6024
lfoot -29.2753 18.1671
ltoes -24.0644
3
root -7.61713 14.864 -35.7927 5.12556 60.3258 3.20967
lowerback 16.2448 -5.33667 -8.32569
upperback -0.781338 -8.27129 4.38905
thorax -8.07558 -3.54973 11.3492
lowerneck 9.17044 -17.7276 -17.8538
upperneck 2.65779 -25.8603 18.9867
head 4.15785 -13.2294 7.25277
rclavicle 4.83047e-014 -4.21423e-014
rhumerus -37.8167 8.00099 -74.3744
rradius 35.1671
rwrist -0.89986
rhand -12.9403 -39.8324
rfingers 7.12502
rthumb 13.1508 -69.3976
lclavicle 4.83047e-014 -4.21423e-014
lhumerus -33.7648 5.07567 81.981
lradius 31.4756
lwrist -16.6577
lhand -27.7137 10.3172
lfingers 7.12502
lthumb -1.10938 40.2941
rfemur -41.6813 6.45117 -6.46154
rtibia 57.4812
rfoot -24.2967 18.5506
rtoes -14.0937
lfemur -13.2603 15.1177 -2.46889
ltibia 56.4085
lfoot -29.3124 18.1043
ltoes -23.3033
4
root -7.61762 14.8714 -35.796 5.34142 60.0666 3.42943
lowerback 16.1216 -5.37304 -8.37924
upperback -0.824343 -8.32866 4.34504
thorax -8.03987 -3.57881 11.3247
lowerneck 9.1586 -17.7406 -17.8109
upperneck 2.75649 -25.8808 18.9332
head 4.17993 -13.2364 7.2251
rclavicle -5.96354e-015 -5.88403e-014
rhumerus -37.8212 7.43827 -74.0952
rradius 34.638
rwrist -1.40002
rhand -13.1483 -39.9546
rfingers 7.12502
rthumb 12.9502 -69.5327
lclavicle -5.96354e-015 -5.88403e-014
lhumerus -33.4202 5.27503 81.657
lradius 30.2062
lwrist -17.9522
lhand -27.4235 10.7562
lfingers 7.12502
lthumb -0.829103 40.7344
rfemur -41.81 6.55365 -6.60051
rtibia 57.3975
rfoot -24.1804 18.7335
rtoes -13.7629
lfemur -13.1008 15.2562 -2.65024
ltibia 56.2178
lfoot -29.177 18.271
ltoes -23.4566
5
root -7.61957 14.8767 -35.7967 5.52145 59.7897 3.63239
lowerback 15.9837 -5.3453 -8.57127
upperback -0.833058 -8.3187 4.36795
thorax -7.94463 -3.57425 11.4375
lowerneck 9.00407 -17.7902 -17.7639
upperneck 2.88393 -25.9275 18.7685
head 4.22135 -13.2476 7.1445
rclavicle -7.20594e-014 2.46493e-014
rhumerus -37.9164 6.8812 -73.7587
rradius 34.2192
rwrist -1.78326
rhand -13.3984 -40.6353
rfingers 7.12502
rthumb 12.7092 -70.2286
lclavicle -7.20594e-014 2.46493e-014
lhumerus -33.0181 5.41381 81.4872
lradius 29.0621
lwrist -19.1411
lhand -27.2569 12.3533
lfingers 7.12502
lthumb -0.668173 42.332
rfemur -41.9442 6.62066 -6.7087
rtibia 57.333
rfoot -24.0718 18.9613
rtoes -13.5485
lfemur -12.9086 15.4124 -2.78179
ltibia 56.0424
lfoot -29.1791 18.2231
ltoes -23.2887
